<svg width="52" height="52" viewBox="0 0 52 52" fill="none" xmlns="http://www.w3.org/2000/svg">
<rect width="52" height="52" rx="26" fill="#141414"/>
<path d="M28.625 22.5H23.375C23.1429 22.5 22.9204 22.5922 22.7563 22.7563C22.5922 22.9204 22.5 23.1429 22.5 23.375V28.625C22.5 28.8571 22.5922 29.0796 22.7563 29.2437C22.9204 29.4078 23.1429 29.5 23.375 29.5H28.625C28.8571 29.5 29.0796 29.4078 29.2437 29.2437C29.4078 29.0796 29.5 28.8571 29.5 28.625V23.375C29.5 23.1429 29.4078 22.9204 29.2437 22.7563C29.0796 22.5922 28.8571 22.5 28.625 22.5ZM27.75 27.75H24.25V24.25H27.75V27.75ZM37.375 27.75H35.625V24.25H37.375C37.6071 24.25 37.8296 24.1578 37.9937 23.9937C38.1578 23.8296 38.25 23.6071 38.25 23.375C38.25 23.1429 38.1578 22.9204 37.9937 22.7563C37.8296 22.5922 37.6071 22.5 37.375 22.5H35.625V18.125C35.625 17.6609 35.4406 17.2158 35.1124 16.8876C34.7842 16.5594 34.3391 16.375 33.875 16.375H29.5V14.625C29.5 14.3929 29.4078 14.1704 29.2437 14.0063C29.0796 13.8422 28.8571 13.75 28.625 13.75C28.3929 13.75 28.1704 13.8422 28.0063 14.0063C27.8422 14.1704 27.75 14.3929 27.75 14.625V16.375H24.25V14.625C24.25 14.3929 24.1578 14.1704 23.9937 14.0063C23.8296 13.8422 23.6071 13.75 23.375 13.75C23.1429 13.75 22.9204 13.8422 22.7563 14.0063C22.5922 14.1704 22.5 14.3929 22.5 14.625V16.375H18.125C17.6609 16.375 17.2158 16.5594 16.8876 16.8876C16.5594 17.2158 16.375 17.6609 16.375 18.125V22.5H14.625C14.3929 22.5 14.1704 22.5922 14.0063 22.7563C13.8422 22.9204 13.75 23.1429 13.75 23.375C13.75 23.6071 13.8422 23.8296 14.0063 23.9937C14.1704 24.1578 14.3929 24.25 14.625 24.25H16.375V27.75H14.625C14.3929 27.75 14.1704 27.8422 14.0063 28.0063C13.8422 28.1704 13.75 28.3929 13.75 28.625C13.75 28.8571 13.8422 29.0796 14.0063 29.2437C14.1704 29.4078 14.3929 29.5 14.625 29.5H16.375V33.875C16.375 34.3391 16.5594 34.7842 16.8876 35.1124C17.2158 35.4406 17.6609 35.625 18.125 35.625H22.5V37.375C22.5 37.6071 22.5922 37.8296 22.7563 37.9937C22.9204 38.1578 23.1429 38.25 23.375 38.25C23.6071 38.25 23.8296 38.1578 23.9937 37.9937C24.1578 37.8296 24.25 37.6071 24.25 37.375V35.625H27.75V37.375C27.75 37.6071 27.8422 37.8296 28.0063 37.9937C28.1704 38.1578 28.3929 38.25 28.625 38.25C28.8571 38.25 29.0796 38.1578 29.2437 37.9937C29.4078 37.8296 29.5 37.6071 29.5 37.375V35.625H33.875C34.3391 35.625 34.7842 35.4406 35.1124 35.1124C35.4406 34.7842 35.625 34.3391 35.625 33.875V29.5H37.375C37.6071 29.5 37.8296 29.4078 37.9937 29.2437C38.1578 29.0796 38.25 28.8571 38.25 28.625C38.25 28.3929 38.1578 28.1704 37.9937 28.0063C37.8296 27.8422 37.6071 27.75 37.375 27.75ZM33.875 33.875H18.125V18.125H33.875V28.6108C33.875 28.6108 33.875 28.6206 33.875 28.625C33.875 28.6294 33.875 28.6348 33.875 28.6392V33.875Z" fill="white"/>
</svg>
