<svg width="52" height="52" viewBox="0 0 52 52" fill="none" xmlns="http://www.w3.org/2000/svg">
<rect width="52" height="52" rx="26" fill="#141414"/>
<path d="M37.375 19.0002C37.3747 18.3456 37.1908 17.7043 36.8443 17.149C36.4978 16.5937 36.0025 16.1467 35.4147 15.8588C34.8269 15.5709 34.1701 15.4535 33.5189 15.5201C32.8678 15.5867 32.2484 15.8345 31.731 16.2355C31.2136 16.6365 30.8191 17.1745 30.5921 17.7884C30.3652 18.4023 30.3149 19.0676 30.4471 19.7087C30.5793 20.3497 30.8885 20.9409 31.3398 21.415C31.7911 21.8891 32.3662 22.2272 33 22.3908V24.2502C33 24.4823 32.9078 24.7048 32.7437 24.8689C32.5796 25.033 32.3571 25.1252 32.125 25.1252H22.5C22.2019 25.1251 21.9059 25.1762 21.625 25.2761V22.3908C22.4498 22.1778 23.1687 21.6714 23.6468 20.9663C24.1249 20.2613 24.3295 19.406 24.2221 18.5609C24.1148 17.7159 23.7029 16.9389 23.0637 16.3758C22.4245 15.8126 21.6019 15.502 20.75 15.502C19.8981 15.502 19.0755 15.8126 18.4363 16.3758C17.7971 16.9389 17.3852 17.7159 17.2779 18.5609C17.1706 19.406 17.3751 20.2613 17.8532 20.9663C18.3313 21.6714 19.0502 22.1778 19.875 22.3908V29.6096C19.0502 29.8225 18.3313 30.329 17.8532 31.0341C17.3751 31.7391 17.1706 32.5944 17.2779 33.4394C17.3852 34.2845 17.7971 35.0615 18.4363 35.6246C19.0755 36.1877 19.8981 36.4984 20.75 36.4984C21.6019 36.4984 22.4245 36.1877 23.0637 35.6246C23.7029 35.0615 24.1148 34.2845 24.2221 33.4394C24.3295 32.5944 24.1249 31.7391 23.6468 31.0341C23.1687 30.329 22.4498 29.8225 21.625 29.6096V27.7502C21.625 27.5181 21.7172 27.2956 21.8813 27.1315C22.0454 26.9674 22.2679 26.8752 22.5 26.8752H32.125C32.8212 26.8752 33.4889 26.5986 33.9812 26.1063C34.4734 25.6141 34.75 24.9464 34.75 24.2502V22.3908C35.501 22.1957 36.1662 21.7571 36.6412 21.1435C37.1162 20.5299 37.3743 19.7761 37.375 19.0002ZM19 19.0002C19 18.6541 19.1026 18.3157 19.2949 18.0279C19.4872 17.7402 19.7605 17.5159 20.0803 17.3834C20.4001 17.2509 20.7519 17.2163 21.0914 17.2838C21.4309 17.3513 21.7427 17.518 21.9874 17.7628C22.2322 18.0075 22.3989 18.3193 22.4664 18.6588C22.5339 18.9982 22.4993 19.3501 22.3668 19.6699C22.2343 19.9897 22.01 20.263 21.7223 20.4553C21.4345 20.6476 21.0961 20.7502 20.75 20.7502C20.2859 20.7502 19.8408 20.5658 19.5126 20.2376C19.1844 19.9094 19 19.4643 19 19.0002ZM22.5 33.0002C22.5 33.3463 22.3974 33.6847 22.2051 33.9724C22.0128 34.2602 21.7395 34.4845 21.4197 34.617C21.0999 34.7494 20.7481 34.7841 20.4086 34.7166C20.0691 34.649 19.7573 34.4824 19.5126 34.2376C19.2678 33.9929 19.1012 33.6811 19.0336 33.3416C18.9661 33.0021 19.0008 32.6503 19.1332 32.3305C19.2657 32.0107 19.49 31.7374 19.7778 31.5451C20.0655 31.3528 20.4039 31.2502 20.75 31.2502C21.2141 31.2502 21.6593 31.4346 21.9874 31.7628C22.3156 32.0909 22.5 32.5361 22.5 33.0002ZM33.875 20.7502C33.5289 20.7502 33.1905 20.6476 32.9028 20.4553C32.615 20.263 32.3907 19.9897 32.2582 19.6699C32.1258 19.3501 32.0911 18.9982 32.1586 18.6588C32.2262 18.3193 32.3928 18.0075 32.6376 17.7628C32.8823 17.518 33.1941 17.3513 33.5336 17.2838C33.8731 17.2163 34.2249 17.2509 34.5447 17.3834C34.8645 17.5159 35.1378 17.7402 35.3301 18.0279C35.5224 18.3157 35.625 18.6541 35.625 19.0002C35.625 19.4643 35.4406 19.9094 35.1124 20.2376C34.7843 20.5658 34.3391 20.7502 33.875 20.7502Z" fill="white"/>
</svg>
