<svg width="52" height="52" viewBox="0 0 52 52" fill="none" xmlns="http://www.w3.org/2000/svg">
<rect width="52" height="52" rx="26" fill="#141414"/>
<path d="M36.465 19.235L26.84 13.9686C26.5826 13.8271 26.2937 13.7529 26 13.7529C25.7063 13.7529 25.4174 13.8271 25.16 13.9686L15.535 19.2383C15.2601 19.3887 15.0307 19.6102 14.8706 19.8795C14.7105 20.1489 14.6257 20.4562 14.625 20.7696V31.2302C14.6257 31.5435 14.7105 31.8509 14.8706 32.1203C15.0307 32.3896 15.2601 32.6111 15.535 32.7614L25.16 38.03C25.4172 38.1721 25.7062 38.2467 26 38.2467C26.2938 38.2467 26.5828 38.1721 26.84 38.03L36.465 32.7614C36.7399 32.6111 36.9693 32.3896 37.1294 32.1203C37.2895 31.8509 37.3743 31.5435 37.375 31.2302V20.7696C37.3749 20.4557 37.2903 20.1476 37.1302 19.8776C36.9701 19.6077 36.7404 19.3857 36.465 19.235ZM30.375 28.6249V34.1035L26.875 36.0197V26.5183L35.625 21.7277V25.2277L30.83 27.8527C30.6916 27.9284 30.5762 28.0402 30.4961 28.1761C30.416 28.312 30.3742 28.4671 30.375 28.6249ZM21.17 27.8593L16.375 25.2343V21.7343L25.125 26.5249V36.0263L21.625 34.1035V28.6249C21.6246 28.4682 21.5822 28.3145 21.5022 28.1798C21.4222 28.0452 21.3074 27.9345 21.17 27.8593ZM21.0934 18.1894L25.5778 20.6449C25.7066 20.7153 25.851 20.7523 25.9978 20.7523C26.1446 20.7523 26.289 20.7153 26.4178 20.6449L30.9022 18.1894L34.6734 20.2533L26 25.0024L17.3222 20.2511L21.0934 18.1894ZM26 15.4999L29.0844 17.1886L26 18.8785L22.9156 17.1897L26 15.4999ZM16.375 27.2271L19.875 29.1433V33.1454L16.375 31.2302V27.2271ZM32.125 33.1454V29.1433L35.625 27.2271V31.2302L32.125 33.1454Z" fill="white"/>
</svg>
