<svg width="52" height="52" viewBox="0 0 52 52" fill="none" xmlns="http://www.w3.org/2000/svg">
<rect width="52" height="52" rx="26" fill="#141414"/>
<path d="M33.0554 30.7545C34.1618 29.8251 35.0458 28.6593 35.642 27.343C36.2383 26.0266 36.5317 24.5933 36.5007 23.1486C36.3913 18.1491 32.3871 14.0267 27.3963 13.7642C26.1086 13.6941 24.8199 13.8835 23.6069 14.3212C22.3938 14.7588 21.281 15.4358 20.3347 16.3118C19.3883 17.1879 18.6276 18.2452 18.0979 19.421C17.5681 20.5967 17.28 21.867 17.2507 23.1563L14.7952 27.8791C14.7854 27.8988 14.7755 27.9184 14.7668 27.9381C14.5907 28.3485 14.5782 28.8105 14.7317 29.2298C14.8852 29.6491 15.1932 29.9938 15.5925 30.1934L15.6199 30.2055L18.1257 31.3528V34.75C18.1257 35.2141 18.31 35.6593 18.6382 35.9874C18.9664 36.3156 19.4115 36.5 19.8757 36.5H25.1257C25.3577 36.5 25.5803 36.4078 25.7444 36.2437C25.9085 36.0796 26.0007 35.8571 26.0007 35.625C26.0007 35.3929 25.9085 35.1704 25.7444 35.0063C25.5803 34.8422 25.3577 34.75 25.1257 34.75H19.8757V30.7917C19.8758 30.624 19.8277 30.4598 19.7372 30.3186C19.6466 30.1775 19.5174 30.0653 19.3649 29.9955L16.3757 28.625L18.899 23.7753C18.9647 23.6521 18.9996 23.5147 19.0007 23.375C19.0004 21.5904 19.6063 19.8586 20.7191 18.4634C21.832 17.0682 23.3857 16.0924 25.1257 15.6958V17.4009C24.5419 17.6074 24.0498 18.0135 23.7365 18.5476C23.4232 19.0817 23.3088 19.7094 23.4135 20.3197C23.5182 20.93 23.8353 21.4837 24.3087 21.8828C24.7822 22.2819 25.3814 22.5008 26.0007 22.5008C26.6199 22.5008 27.2192 22.2819 27.6926 21.8828C28.1661 21.4837 28.4832 20.93 28.5879 20.3197C28.6926 19.7094 28.5782 19.0817 28.2648 18.5476C27.9515 18.0135 27.4595 17.6074 26.8757 17.4009V15.5C27.0179 15.5 27.16 15.5 27.3022 15.5109C28.8539 15.5998 30.3449 16.1442 31.5888 17.0761C32.8327 18.0079 33.7743 19.2859 34.2957 20.75H32.1257C31.9973 20.75 31.8705 20.7782 31.7543 20.8326C31.638 20.887 31.5352 20.9664 31.453 21.065L28.6629 24.4141C28.0809 24.1972 27.4411 24.1932 26.8565 24.4026C26.2719 24.6121 25.7802 25.0215 25.4683 25.5585C25.1565 26.0955 25.0446 26.7255 25.1524 27.3371C25.2603 27.9486 25.581 28.5023 26.0577 28.9003C26.5344 29.2982 27.1366 29.5147 27.7575 29.5115C28.3785 29.5083 28.9784 29.2856 29.451 28.8828C29.9236 28.48 30.2386 27.923 30.3401 27.3104C30.4417 26.6978 30.3233 26.0689 30.006 25.5352L32.5358 22.5H34.7004C34.7266 22.7275 34.7426 22.9572 34.7485 23.1891C34.7758 24.4423 34.5045 25.6841 33.9572 26.8119C33.4099 27.9396 32.6021 28.921 31.6007 29.675C31.4773 29.7675 31.3805 29.891 31.3202 30.0329C31.2599 30.1749 31.2382 30.3302 31.2572 30.4833L32.1322 37.4833C32.1589 37.6946 32.2616 37.889 32.4213 38.0299C32.581 38.1709 32.7866 38.2487 32.9996 38.2489C33.0361 38.2489 33.0727 38.2467 33.1089 38.2424C33.223 38.2282 33.3331 38.1916 33.4331 38.1348C33.533 38.0781 33.6208 38.0022 33.6914 37.9115C33.762 37.8208 33.814 37.717 33.8445 37.6062C33.875 37.4954 33.8833 37.3797 33.8691 37.2656L33.0554 30.7545ZM26.0007 20.75C25.8276 20.75 25.6584 20.6987 25.5145 20.6025C25.3707 20.5064 25.2585 20.3697 25.1923 20.2099C25.126 20.05 25.1087 19.874 25.1425 19.7043C25.1762 19.5346 25.2596 19.3787 25.382 19.2563C25.5043 19.1339 25.6602 19.0506 25.83 19.0168C25.9997 18.9831 26.1756 19.0004 26.3355 19.0666C26.4954 19.1328 26.6321 19.245 26.7282 19.3889C26.8244 19.5328 26.8757 19.7019 26.8757 19.875C26.8757 20.1071 26.7835 20.3296 26.6194 20.4937C26.4553 20.6578 26.2327 20.75 26.0007 20.75ZM27.7507 27.75C27.5776 27.75 27.4084 27.6987 27.2645 27.6025C27.1207 27.5064 27.0085 27.3697 26.9423 27.2099C26.876 27.05 26.8587 26.874 26.8925 26.7043C26.9262 26.5346 27.0096 26.3787 27.1319 26.2563C27.2543 26.1339 27.4102 26.0506 27.58 26.0168C27.7497 25.9831 27.9256 26.0004 28.0855 26.0666C28.2454 26.1328 28.3821 26.245 28.4782 26.3889C28.5744 26.5328 28.6257 26.702 28.6257 26.875C28.6257 27.1071 28.5335 27.3296 28.3694 27.4937C28.2053 27.6578 27.9827 27.75 27.7507 27.75Z" fill="white"/>
</svg>
