<svg width="52" height="52" viewBox="0 0 52 52" fill="none" xmlns="http://www.w3.org/2000/svg">
<rect width="52" height="52" rx="26" fill="#141414"/>
<path d="M33.875 17.25H26.875V13.75C26.875 13.5179 26.7828 13.2954 26.6187 13.1313C26.4546 12.9672 26.2321 12.875 26 12.875C25.7679 12.875 25.5454 12.9672 25.3813 13.1313C25.2172 13.2954 25.125 13.5179 25.125 13.75V17.25H18.125C17.1967 17.25 16.3065 17.6187 15.6501 18.2751C14.9937 18.9315 14.625 19.8217 14.625 20.75V33C14.625 33.9283 14.9937 34.8185 15.6501 35.4749C16.3065 36.1313 17.1967 36.5 18.125 36.5H33.875C34.8033 36.5 35.6935 36.1313 36.3499 35.4749C37.0063 34.8185 37.375 33.9283 37.375 33V20.75C37.375 19.8217 37.0063 18.9315 36.3499 18.2751C35.6935 17.6187 34.8033 17.25 33.875 17.25ZM35.625 33C35.625 33.4641 35.4406 33.9092 35.1124 34.2374C34.7842 34.5656 34.3391 34.75 33.875 34.75H18.125C17.6609 34.75 17.2158 34.5656 16.8876 34.2374C16.5594 33.9092 16.375 33.4641 16.375 33V20.75C16.375 20.2859 16.5594 19.8408 16.8876 19.5126C17.2158 19.1844 17.6609 19 18.125 19H33.875C34.3391 19 34.7842 19.1844 35.1124 19.5126C35.4406 19.8408 35.625 20.2859 35.625 20.75V33ZM29.9375 26.875H22.0625C21.2503 26.875 20.4713 27.1977 19.897 27.772C19.3227 28.3463 19 29.1253 19 29.9375C19 30.7497 19.3227 31.5287 19.897 32.103C20.4713 32.6773 21.2503 33 22.0625 33H29.9375C30.7497 33 31.5287 32.6773 32.103 32.103C32.6773 31.5287 33 30.7497 33 29.9375C33 29.1253 32.6773 28.3463 32.103 27.772C31.5287 27.1977 30.7497 26.875 29.9375 26.875ZM27.3125 28.625V31.25H24.6875V28.625H27.3125ZM20.75 29.9375C20.75 29.5894 20.8883 29.2556 21.1344 29.0094C21.3806 28.7633 21.7144 28.625 22.0625 28.625H22.9375V31.25H22.0625C21.7144 31.25 21.3806 31.1117 21.1344 30.8656C20.8883 30.6194 20.75 30.2856 20.75 29.9375ZM29.9375 31.25H29.0625V28.625H29.9375C30.2856 28.625 30.6194 28.7633 30.8656 29.0094C31.1117 29.2556 31.25 29.5894 31.25 29.9375C31.25 30.2856 31.1117 30.6194 30.8656 30.8656C30.6194 31.1117 30.2856 31.25 29.9375 31.25ZM19.875 23.8125C19.875 23.5529 19.952 23.2992 20.0962 23.0833C20.2404 22.8675 20.4454 22.6992 20.6852 22.5999C20.9251 22.5006 21.189 22.4746 21.4436 22.5252C21.6982 22.5759 21.932 22.7009 22.1156 22.8844C22.2991 23.068 22.4241 23.3018 22.4748 23.5564C22.5254 23.811 22.4994 24.0749 22.4001 24.3148C22.3008 24.5546 22.1325 24.7596 21.9167 24.9038C21.7008 25.048 21.4471 25.125 21.1875 25.125C20.8394 25.125 20.5056 24.9867 20.2594 24.7406C20.0133 24.4944 19.875 24.1606 19.875 23.8125ZM29.5 23.8125C29.5 23.5529 29.577 23.2992 29.7212 23.0833C29.8654 22.8675 30.0704 22.6992 30.3102 22.5999C30.5501 22.5006 30.814 22.4746 31.0686 22.5252C31.3232 22.5759 31.557 22.7009 31.7406 22.8844C31.9241 23.068 32.0491 23.3018 32.0998 23.5564C32.1504 23.811 32.1244 24.0749 32.0251 24.3148C31.9258 24.5546 31.7575 24.7596 31.5417 24.9038C31.3258 25.048 31.0721 25.125 30.8125 25.125C30.4644 25.125 30.1306 24.9867 29.8844 24.7406C29.6383 24.4944 29.5 24.1606 29.5 23.8125Z" fill="white"/>
</svg>
